<?xml version="1.0" encoding="utf-8"?>
<!-- Generator: Adobe Illustrator 27.7.0, SVG Export Plug-In . SVG Version: 6.00 Build 0)  -->
<svg version="1.1"
	 id="Layer_1" xmlns:inkscape="http://www.inkscape.org/namespaces/inkscape" xmlns:sodipodi="http://sodipodi.sourceforge.net/DTD/sodipodi-0.dtd" xmlns:rdf="http://www.w3.org/1999/02/22-rdf-syntax-ns#" xmlns:cc="http://creativecommons.org/ns#" xmlns:svg="http://www.w3.org/2000/svg" xmlns:dc="http://purl.org/dc/elements/1.1/"
	 xmlns="http://www.w3.org/2000/svg" xmlns:xlink="http://www.w3.org/1999/xlink" x="0px" y="0px" viewBox="0 0 83.2 82.6"
	 style="enable-background:new 0 0 83.2 82.6;" xml:space="preserve">
<style type="text/css">
	.st0{fill:#FFFFFF;}
</style>
<g transform="translate(0,-952.36218)">
	<path class="st0" d="M10.9,956c-11.2,7.1-14.2,22.4-6.8,34c2.1,3.3,4.8,5.9,7.8,7.8c0.9,0.7,2.1,0.5,2.8-0.3
		c0.7-0.9,0.5-2.1-0.3-2.8c-0.1-0.1-0.2-0.1-0.3-0.2c-2.6-1.6-4.8-3.9-6.6-6.7c-6.3-9.8-3.7-22.5,5.6-28.5c9.3-5.9,21.9-2.9,28.1,7
		c1.8,2.8,2.8,5.8,3.2,8.8c0.1,1.1,1,2,2.1,1.9c1.1-0.1,2-1,1.9-2.1c0-0.1,0-0.2,0-0.3c-0.5-3.6-1.7-7.1-3.8-10.4
		C37.2,952.6,22.1,948.9,10.9,956z M14.6,961.9c-8,5.1-10,16-4.7,24.3c1.8,2.8,4.1,4.9,6.7,6.3c0.9,0.6,2.2,0.4,2.8-0.5
		c0.6-0.9,0.4-2.2-0.5-2.8c-0.1-0.1-0.2-0.1-0.3-0.2c-2.1-1.1-3.9-2.8-5.3-5c-4.2-6.6-2.6-15,3.4-18.8c6-3.8,14.3-1.8,18.5,4.8
		c1.4,2.2,2.1,4.5,2.3,6.9c0,1.1,0.9,2,2,2c1.1,0,2-0.9,2-2c0-0.1,0-0.2,0-0.3c-0.2-3-1.1-6-2.9-8.8
		C33.3,959.6,22.6,956.8,14.6,961.9z M19.5,969.5c-3.7,2.4-4.8,7.3-2.5,11l14.8,23.2c-2.5-1.6-5.9-2.8-8.6-1.9c-3.8,1.2-6,6.2-5,9.8
		c0.6,1.9,2.1,3.6,4.5,5.4c11.1,7.7,22.9,14.4,34.4,17.9c0.5,0.2,1.2,0.1,1.6-0.2l22.8-14.5c0.4-0.2,0.6-0.6,0.8-1
		c1.3-3.3,1.3-7.7,0.6-12.3c-0.7-4.7-2.2-9.7-4.1-14.3c-2-4.5-4.5-8.4-7.5-11.3c-3-2.8-7.1-4-10.8-2.2c-0.8,0.5-1.6,1.1-2.3,1.8
		c-1.1-0.8-2.3-1.3-3.4-1.3c-1.8-0.1-3.3,0.4-4.3,1.1c-1,0.7-1.7,1.6-2.1,2.7c-0.7-0.3-1.5-0.7-2.2-0.7c-1.8-0.1-3.3,0.5-4.4,1.2
		c-0.9,0.6-1.6,1.3-2.2,2.2l-9-14.1C27.5,967.5,22.6,967.5,19.5,969.5L19.5,969.5z M21.6,972.9c1.9-1.2,4.3-0.7,5.5,1.2l11.3,17.7
		c0.5,0.8,1.5,1.1,2.4,0.8c0.9-0.3,1.4-1.2,1.3-2.1c-0.1-1,0.8-2.7,1.7-3.3c0.4-0.3,1.3-0.6,2-0.5c0.7,0,1.4,0.2,2.1,1.4
		c0.5,0.8,1.5,1.1,2.3,0.8c0.8-0.3,1.4-1.2,1.3-2.1c-0.2-1.8,0-2.3,0.9-2.8c0.2-0.1,1.1-0.5,1.9-0.5c0.8,0,1.4,0.2,2.2,1.4
		c0.4,0.7,1.2,1,2,0.9c0.8-0.1,1.5-0.7,1.6-1.5c0.4-0.7,1-1.2,1.8-1.7c2.2-1,4-0.4,6.3,1.6c2.3,2.1,4.7,5.7,6.5,9.9
		c1.8,4.2,3.2,8.9,3.9,13.2c0.6,4,0.5,7.6-0.3,9.8l-21.3,13.5c-10.4-3.2-22.9-10.3-32.3-17c-2-1.5-2.8-2.6-3-3.3
		c-0.4-2,0.7-4.1,2.4-4.8c2.2-0.5,3.4,0.4,5.1,1.3l7.6,4.6c0.8,0.5,1.8,0.3,2.5-0.3c0.6-0.6,0.7-1.7,0.3-2.5l-19.3-30.4
		C19.2,976.5,19.7,974.1,21.6,972.9z"/>
</g>
</svg>
